<svg id="Calque_2" data-name="Calque 2" xmlns="http://www.w3.org/2000/svg" viewBox="0 0 213.26 42.38"><defs><style>.cls-1,.cls-3,.cls-7{fill:#1d1d1b;}.cls-1,.cls-2,.cls-4{stroke:#1d1d1b;}.cls-1,.cls-2,.cls-4,.cls-5,.cls-7,.cls-8{stroke-miterlimit:10;}.cls-2,.cls-6{fill:#fff;}.cls-5{fill:#0b0c0c;stroke:#0b0c0c;}.cls-7{stroke:#333;}.cls-8{fill:#ec6438;stroke:#e83b3b;}</style></defs><title>logo</title><path class="cls-1" d="M200.17,396h212v-3.19H209.27s-1.49.51-1.46-1.42.35-20.43.35-20.43l13.45-12.89,18,15.16,2.56,1.42.47-1.7-.18-1.33,1.51,1,3,2.37,3.89-.09-.29-1.9-18.09-16.67h-3.6L228,357.7l0,1.61-5.88-4.55-16,13.4L201,372.43l-.29,2.65,2.66.3,1.8-2.19-.29,19.32-3-.14-2,.19V396Z" transform="translate(-199.37 -354.12)"/><polygon class="cls-1" points="37.45 5.62 55.87 21.91 59.99 21.91 59.99 18.83 40.29 2.44 37.21 2.21 37.21 5.66 37.45 5.62"/><polygon class="cls-1" points="28.3 37.37 31.4 37.37 36.42 26.28 36.04 24.04 33.55 24.86 30.39 32.44 26.25 24.77 23.57 24.48 23.28 27.29 28.3 37.37"/><path class="cls-1" d="M237.29,378.7q0,6,0,12l10.83-.07V388.6h-8.34c.06-3.29.13-6.59.19-9.88Z" transform="translate(-199.37 -354.12)"/><path class="cls-1" d="M249.32,378v12.6l9.35.11a6,6,0,0,0,1.51-1.61,6.17,6.17,0,0,0,.9-2.51,8.15,8.15,0,0,0-.71-5.16,5.8,5.8,0,0,0-1.46-2c-.38-.32-1.35-1-4.79-1.38A29.26,29.26,0,0,0,249.32,378Z" transform="translate(-199.37 -354.12)"/><path class="cls-2" d="M253.11,381.74v6.77h5a5.25,5.25,0,0,0,.85-2.94,3.88,3.88,0,0,0-.71-2.42,4.16,4.16,0,0,0-2.56-1.37A6.18,6.18,0,0,0,253.11,381.74Z" transform="translate(-199.37 -354.12)"/><path class="cls-1" d="M264.53,384.62l5.73,0c0,1.32,0,2.65,0,4l-6-.05v-3.84Z" transform="translate(-199.37 -354.12)"/><path class="cls-1" d="M271.78,377.92v12.74h3.08v-7.45l1.38.06,1,7.39h3.95l1.14-7.39,1.32,0,.16,7.5h3.13V377.9h-5.28l-1.54,6-.54,1.67h-.74q-1.27-3.86-2.54-7.71Z" transform="translate(-199.37 -354.12)"/><polygon class="cls-1" points="88.92 36.47 94.54 23.98 97.15 23.98 103.31 36.37 98.62 36.47 98.57 33.53 92.66 33.56 92.65 36.55 88.92 36.55 88.92 36.47"/><path class="cls-2" d="M293.5,382.52v3.71s3.05,0,3.05,0v-3.79H293.5Z" transform="translate(-199.37 -354.12)"/><path class="cls-1" d="M303.91,382.39c.17,1.74.34,3.48.52,5.22a7.54,7.54,0,0,0,6,2.88,7.07,7.07,0,0,0,4.41-1.94l.34-2.36-2,.12a3,3,0,0,1-1.29,2.05,3.06,3.06,0,0,1-3.1-.13,3.33,3.33,0,0,1-1.4-1.69c-1-3.55.57-5,.57-5a3.91,3.91,0,0,1,4.15-.4,2.62,2.62,0,0,1,.59.44,2.73,2.73,0,0,1,.7,1.63l1.82.06c-.13-1.24-.26-2.49-.38-3.73a8.78,8.78,0,0,0-8.43-1.08,2.61,2.61,0,0,0-.68.42,3,3,0,0,0-.79,1.27A22.67,22.67,0,0,1,303.91,382.39Z" transform="translate(-199.37 -354.12)"/><path class="cls-1" d="M325.26,379.45s-1.17,2.59-.64,3.92,2.06,1.64,3.29,1.67,4.61.32,5,1a2.4,2.4,0,0,1,.19,1.61c0,.31-.32.56-1.55.63a6.58,6.58,0,0,1-3-.19,2.07,2.07,0,0,1-1.23-1.52,1.37,1.37,0,0,1,0-.5l-2.4.13s-.1,2.49,1,3.31a7.9,7.9,0,0,0,3.51,1.23,33.23,33.23,0,0,0,4.35,0c.86-.06,2.62-2.59,2.59-4.17s-.66-2.15-2.21-2.71-5-.51-5.43-.67-.54-.31-.66-1,0-1.86.63-2.05a8.6,8.6,0,0,1,3.35.19c.63.25.79,1.36.72,1.64s.26.44,1.74.46,1.77.05,1.86-.74a6.25,6.25,0,0,0-.5-2.25,6.67,6.67,0,0,0-3.19-1.62c-1.58-.14-6-.08-6.63.27A2.34,2.34,0,0,0,325.26,379.45Z" transform="translate(-199.37 -354.12)"/><path class="cls-1" d="M339.24,382.52s-1.42,5.24-.56,6.6,3.63,1.58,5.43,1.51,3.44-1,3.38-2-2.25-.69-2.25-.69.32.72-.34.88-1,.57-2.15.13-1.67-.54-1.86-1.23-.07-.54,1.64-.67,5.62.36,5.75-.48a10.66,10.66,0,0,0,0-2,5.65,5.65,0,0,0-.79-1.67,3.06,3.06,0,0,0-3-1.3,18.23,18.23,0,0,0-3.82.19C340,382.11,339.24,382.52,339.24,382.52Z" transform="translate(-199.37 -354.12)"/><polygon class="cls-2" points="142.46 29.82 142.46 31.3 145.12 31.3 145.12 29.44 142.46 29.44 142.46 29.82"/><polygon class="cls-1" points="151.05 27.51 151.05 36.52 154.24 36.52 154.24 29.79 157.78 29.73 157.78 27.51 151.05 27.51"/><polygon class="cls-1" points="158.73 27.51 162.23 36.36 165.52 36.36 169.59 27.51 165.99 27.51 164.47 33.26 163.34 33.33 161.67 27.51 158.73 27.51"/><polygon class="cls-1" points="170.76 28.05 170.76 36.52 174.52 36.52 174.52 27.51 170.76 27.51 170.76 28.05"/><rect class="cls-3" x="170.76" y="23.82" width="3.76" height="2.94"/><path class="cls-4" d="M375.84,382.75s-.26,5.81,0,6.45a4.1,4.1,0,0,0,2.21,1.61c.52,0,5.61.21,5.82.11a7.51,7.51,0,0,0,1.85-1.77,4.71,4.71,0,0,0,.21-2.16c0-.07-2.51,0-2.51,0s0,1.25-.54,1.56a3.86,3.86,0,0,1-2.72.4c-.79-.33-1.35-.52-1.33-1.51s.16-3.25.19-3.34a2.13,2.13,0,0,1,1.66-.48c1,.05,1.68.24,1.82.86s-.4,1.06,1.07,1,2.34-.19,2.27-.92.21-2.13-.12-2.37a3.37,3.37,0,0,0-1.68-.58c-.71,0-1.85,0-3.36,0a29.74,29.74,0,0,0-3.22,0,3.63,3.63,0,0,0-1.26.58A2.7,2.7,0,0,0,375.84,382.75Z" transform="translate(-199.37 -354.12)"/><path class="cls-5" d="M387.17,383.27v5.88a3.4,3.4,0,0,0,2.44,1.3,15,15,0,0,0,5.47-.4c.73-.36,2-1,2.08-1.35a11.75,11.75,0,0,0,0-1.35l-3.13,0-.11,1.7-3.65.12.07-2.31h6.84a34.38,34.38,0,0,0,0-3.8,5.16,5.16,0,0,0-4.28-2.06c-2.84.05-3.37.05-4.55,1.14Z" transform="translate(-199.37 -354.12)"/><path class="cls-6" d="M394.08,383.18v2.32h-3.17c-.05,0,0-1.75,0-1.75l0-.57Z" transform="translate(-199.37 -354.12)"/><path class="cls-7" d="M401.26,382.32s-.87,1.94-.47,2.93a2.51,2.51,0,0,0,2.46,1.25c.92,0,3.45.24,3.73.78a1.81,1.81,0,0,1,.15,1.21c0,.24-.24.43-1.16.47a4.8,4.8,0,0,1-2.25-.14,1.54,1.54,0,0,1-.92-1.13.9.9,0,0,1,0-.38l-1.8.1s-.07,1.86.76,2.48a6,6,0,0,0,2.63.92,25.33,25.33,0,0,0,3.26,0c.64-.05,2-1.94,1.94-3.12s-.5-1.61-1.66-2a25.74,25.74,0,0,0-4.06-.49c-.36-.12-.41-.24-.5-.78s0-1.4.47-1.54a6.42,6.42,0,0,1,2.51.14c.47.19.59,1,.54,1.23s.19.33,1.3.34,1.33,0,1.4-.55a4.73,4.73,0,0,0-.38-1.68,5,5,0,0,0-2.39-1.22,20.42,20.42,0,0,0-5,.2A1.8,1.8,0,0,0,401.26,382.32Z" transform="translate(-199.37 -354.12)"/><circle class="cls-8" cx="22.26" cy="16.29" r="4.98"/></svg>